<?xml version="1.0" standalone="no"?>
<!DOCTYPE svg PUBLIC "-//W3C//DTD SVG 20010904//EN"
 "http://www.w3.org/TR/2001/REC-SVG-20010904/DTD/svg10.dtd">
<svg version="1.0" xmlns="http://www.w3.org/2000/svg"
 width="640.000000pt" height="110.000000pt" viewBox="0 0 640.000000 110.000000"
 preserveAspectRatio="xMidYMid meet">

<g transform="translate(0.000000,110.000000) scale(0.100000,-0.100000)"
fill="#000000" stroke="none">
<path d="M3750 913 c-81 -12 -90 -15 -90 -28 0 -10 11 -15 35 -15 l35 0 0
-320 0 -319 -35 -7 c-20 -3 -35 -12 -35 -20 0 -11 23 -14 110 -14 90 0 110 3
110 15 0 8 -14 17 -35 21 l-35 6 0 344 c0 379 6 348 -60 337z"/>
<path d="M5023 902 c-92 -33 -162 -98 -207 -192 -29 -60 -31 -73 -31 -170 0
-93 3 -112 26 -161 60 -127 156 -190 298 -197 71 -3 96 0 145 19 157 58 257
247 225 422 -13 76 -60 167 -108 209 -89 78 -240 109 -348 70z m224 -51 c90
-45 137 -145 137 -291 0 -214 -95 -340 -256 -340 -166 0 -255 129 -246 359 3
94 7 113 34 166 33 65 86 111 145 126 52 13 141 4 186 -20z"/>
<path d="M5853 906 c-138 -45 -227 -149 -254 -300 -10 -52 -10 -80 0 -132 23
-125 82 -211 178 -260 51 -26 68 -29 148 -29 79 0 97 3 145 28 71 36 114 73
106 93 -4 12 -13 9 -46 -15 -130 -94 -302 -77 -374 38 -82 129 -76 361 12 471
48 58 105 84 187 84 40 0 85 -7 106 -16 34 -15 36 -18 49 -92 12 -70 15 -76
36 -76 23 0 24 2 24 84 l0 85 -57 21 c-73 28 -201 36 -260 16z"/>
<path d="M310 890 c0 -5 15 -12 34 -16 l34 -6 7 -71 c3 -40 5 -184 3 -322 l-3
-250 -42 -3 c-29 -2 -43 -8 -43 -18 0 -11 21 -14 111 -14 84 0 110 3 107 12
-3 7 -21 16 -41 19 -21 3 -39 8 -42 10 -6 6 -11 589 -5 589 3 0 11 -9 18 -21
7 -11 110 -152 228 -312 134 -181 223 -293 235 -295 18 -3 19 6 19 337 l0 341
29 0 c35 0 61 9 61 21 0 5 -49 9 -110 9 -60 0 -110 -4 -110 -9 0 -12 26 -21
61 -21 l28 0 3 -270 c2 -149 1 -270 -2 -270 -3 0 -17 20 -31 44 -15 24 -107
152 -204 285 l-177 241 -84 0 c-47 0 -84 -4 -84 -10z"/>
<path d="M1770 891 c0 -5 18 -12 40 -16 l40 -7 112 -341 c61 -188 115 -346
120 -352 13 -15 17 -5 114 256 49 131 91 239 94 239 3 0 43 -113 90 -250 47
-137 90 -250 95 -250 6 0 55 138 110 306 123 379 128 390 166 398 61 12 28 26
-61 26 -91 0 -120 -13 -55 -26 27 -5 34 -10 31 -23 -12 -40 -158 -508 -163
-521 -4 -10 -9 -3 -16 20 -6 19 -45 143 -87 275 l-77 240 38 8 c75 16 39 27
-86 27 -123 0 -163 -12 -86 -25 39 -6 41 -9 61 -70 l21 -64 -76 -213 c-42
-117 -78 -215 -80 -217 -2 -1 -9 17 -15 40 -12 46 -140 486 -147 506 -3 6 12
14 36 18 80 13 39 25 -89 25 -72 0 -130 -4 -130 -9z"/>
<path d="M4450 890 c0 -5 16 -12 35 -16 l35 -6 0 -318 c0 -346 3 -330 -56
-330 -15 0 -24 -6 -24 -15 0 -12 20 -15 120 -15 98 0 120 3 120 14 0 9 -12 16
-32 18 l-33 3 -3 321 -2 321 40 7 c81 13 40 26 -80 26 -70 0 -120 -4 -120 -10z"/>
<path d="M1620 727 c-18 -36 -35 -56 -57 -67 -41 -19 -42 -36 -3 -45 l30 -7 0
-156 c0 -169 7 -212 42 -249 26 -28 83 -31 134 -7 37 18 48 49 14 40 -11 -3
-28 -8 -39 -11 -10 -3 -29 3 -42 14 -23 19 -24 24 -27 189 l-4 169 39 7 c82
14 93 18 93 32 0 11 -16 14 -65 14 l-65 0 0 65 c0 81 -15 85 -50 12z"/>
<path d="M1205 663 c-44 -23 -74 -53 -98 -98 -18 -33 -22 -57 -22 -140 0 -115
16 -159 77 -208 66 -53 205 -49 258 8 33 35 22 38 -35 10 -125 -64 -223 9
-225 168 l0 47 150 0 150 0 0 38 c-1 59 -40 143 -79 169 -41 28 -129 31 -176
6z m109 -13 c32 -12 53 -53 62 -118 l7 -52 -111 0 -110 0 9 41 c16 69 48 117
89 132 22 8 26 8 54 -3z"/>
<path d="M2882 659 c-80 -40 -121 -118 -121 -234 -1 -149 85 -245 218 -245 62
0 89 10 135 51 62 54 81 101 81 199 0 68 -5 93 -22 126 -24 45 -82 100 -120
115 -43 16 -125 10 -171 -12z m167 -34 c45 -38 66 -105 65 -205 -1 -141 -47
-210 -141 -210 -48 0 -77 20 -105 73 -31 57 -33 232 -5 287 43 82 125 106 186
55z"/>
<path d="M3323 673 c-54 -5 -58 -29 -8 -39 l35 -6 0 -198 0 -198 -36 -9 c-69
-16 -35 -28 91 -31 103 -2 125 0 125 12 0 9 -16 16 -50 21 l-50 7 0 153 0 153
35 31 c34 30 54 35 121 31 27 -1 32 3 37 26 8 43 -1 54 -45 54 -36 0 -47 -7
-91 -50 -27 -27 -51 -50 -53 -50 -2 0 -4 23 -4 50 l0 50 -32 -2 c-18 -1 -52
-3 -75 -5z"/>
<path d="M3957 664 c-11 -12 3 -24 29 -24 13 0 24 -3 24 -8 0 -4 -40 -47 -89
-96 l-90 -89 76 -91 c42 -50 83 -99 91 -108 14 -16 12 -18 -16 -24 -18 -4 -32
-13 -32 -20 0 -11 23 -14 110 -14 90 0 110 3 110 15 0 8 -16 19 -37 25 -31 9
-57 33 -135 128 l-98 117 81 76 c55 51 93 79 118 85 20 5 35 14 34 19 -3 11
-165 20 -176 9z"/>
</g>
</svg>
